#!OML:ASF E:\acrobat2\Project_11_07_03\Capture day 1\Session 1\Acrobat.ASF
:FULLY-SPECIFIED
:DEGREES
2594
root 11.1529 4.15172 10.6304 -82.5439 2.91446 168.791
lowerback -9.806886174207845 -1.8328758734861719 -4.636700706307269
upperback -9.721911924915537 -9.727001889921903 11.827408508793532
thorax -4.79292113261678 -6.632643881362451 9.76621351537554
lowerneck -4.951638623107768 -17.553867813184638 14.258252133127922
upperneck -31.111260031877435 -24.14855895346898 0.14445836192979633
head -10.109574018373538 -7.267518400994812 -1.6724934825191993
rclavicle 2.38542e-15 -1.58034e-14
rhumerus -29.214654314963404 -18.090056839710396 59.495741670290414
rradius 39.34603058470462
rwrist -27.09708044269242
rhand -26.632787204853983 -36.21233805140539
rfingers 6.951525509486244
rthumb 7.630737273857802 -69.47703372020668
lclavicle 2.38542e-15 -1.58034e-14
lhumerus -9.227188883674101 20.849393248841785 -8.135533687060816
lradius 40.866256741105346
lwrist 29.463401888711566
lhand -14.020852894071803 -28.473896297465217
lfingers 10.394434320211579
lthumb 7.735591195507146 -5.903568937332816
rfemur 5.70349183372147 10.416357829245028 -3.8781646888527237
rtibia 15.566442072677873
rfoot 13.52970767581739 -13.92839391714638
rtoes 28.38461118845293
lfemur -4.948113775640482 -13.094638380987167 -1.4905968002760766
ltibia 3.161968984417215
lfoot 53.586286087321376 -2.834890980465944
ltoes 4.47688
2595
root 11.1529 4.15172 10.6304 -82.5439 2.91446 168.791
lowerback -9.866633652673169 -1.7648113290968364 -4.728914986749277
upperback -9.62728356538495 -9.649114178658944 11.90609246451162
thorax -4.8742474681601 -6.642652998609219 9.690484672430207
lowerneck -4.931391402325736 -17.553896647329264 14.289775353324705
upperneck -31.067889292126836 -24.16841029747146 0.16737801329814206
head -10.049902866174163 -7.176836690867249 -1.6290157053858358
rclavicle 2.38542e-15 -1.58034e-14
rhumerus -27.05463690530418 -20.336114452822667 56.2864985202226
rradius 41.107190438081545
rwrist -27.122423335234384
rhand -26.594382397484605 -36.18363469901732
rfingers 6.959716025610041
rthumb 7.670864445490805 -69.45117792408242
lclavicle 2.38542e-15 -1.58034e-14
lhumerus -6.45579185277092 17.08441982503805 -6.052671942664186
lradius 39.708081269630945
lwrist 29.399826328269906
lhand -14.074006972946703 -28.470888130013712
lfingers 10.45358429925871
lthumb 7.715936593977694 -5.812443956529371
rfemur 5.532797709486974 10.012828142072685 -4.2685443853780916
rtibia 10.64012490333644
rfoot 14.011537940668585 -13.843016396603325
rtoes 28.75327999740251
lfemur -4.508484546299078 -13.280191361762881 -1.2590786215277445
ltibia 7.577670585595009
lfoot 53.48881387771794 -2.3775146036770223
ltoes 4.47688
2596
root 11.1529 4.15172 10.6304 -82.5439 2.91446 168.791
lowerback -9.883368022177493 -1.7148238264623272 -4.715379878603391
upperback -9.70511188357329 -9.674422156187001 11.895508777345833
thorax -4.80953924689847 -6.5466145308094665 9.705768791981201
lowerneck -4.931580885117158 -17.614097891856733 14.291570152238103
upperneck -31.11085527374946 -24.076792698724823 0.1840156849426168
head -9.983029050102159 -7.212287472477593 -1.6825118297110073
rclavicle 2.38542e-15 -1.58034e-14
rhumerus -26.045431536876748 -18.00246925960446 56.094695154284345
rradius 42.77346720589162
rwrist -27.18995082474566
rhand -26.497767628418863 -36.08588324875882
rfingers 6.859949923240658
rthumb 7.698586888866216 -69.42216368384972
lclavicle 2.38542e-15 -1.58034e-14
lhumerus -4.87683259929608 21.893181694126202 -1.9470449638379188
lradius 39.25484832735633
lwrist 29.45372822947084
lhand -13.99323718410661 -28.55804828901531
lfingers 10.427268459085493
lthumb 7.636382472330521 -5.783158904232584
rfemur 5.324083979135752 9.871134624247018 -3.834474915158333
rtibia 7.964129153338437
rfoot 13.983455775904414 -13.97439954933033
rtoes 28.89112776700535
lfemur -4.559275524655853 -13.10702111667243 -1.5941923383803898
ltibia 11.975293600060738
lfoot 53.05566259272462 -1.9756387907152924
ltoes 4.47688
2597
root 11.1529 4.15172 10.6304 -82.5439 2.91446 168.791
lowerback -9.962635134133777 -1.699548538141656 -4.788166009534286
upperback -9.790090004727027 -9.693528109271163 11.905565193129704
thorax -4.764745012385619 -6.603097643013322 9.64578174726752
lowerneck -4.969651600984121 -17.600542052973424 14.258864457419403
upperneck -31.124841238589003 -24.163419654905272 0.2775219933129259
head -9.96847304632675 -7.197979341215195 -1.5951232604093182
rclavicle 2.38542e-15 -1.58034e-14
rhumerus -25.310183186388763 -17.482159436239222 58.54237150883033
rradius 39.9255334989639
rwrist -27.101394634017275
rhand -26.530044078397395 -36.02925020698537
rfingers 6.801979569047933
rthumb 7.747023115447374 -69.33279616082073
lclavicle 2.38542e-15 -1.58034e-14
lhumerus -5.963432472795318 25.64244875592401 1.558291654454739
lradius 37.843892590369165
lwrist 29.523691468847897
lhand -13.941951647075403 -28.478223667779197
lfingers 10.507671720583165
lthumb 7.6647632491036 -5.72463005771409
rfemur 4.897275762004098 9.50698084377895 -3.844865906645286
rtibia 8.509517044839106
rfoot 13.509809533238203 -13.556198830880898
rtoes 28.917495547247043
lfemur -4.32251386372209 -13.025689202831941 -1.2236554437742042
ltibia 12.630441985925493
lfoot 52.576006577087185 -2.211713319905657
ltoes 4.47688
